<svg id="Layer_1" class="fill-current" version="1.1" xmlns="http://www.w3.org/2000/svg" x="0" y="0" viewBox="0 0 460.03 175" xml:space="preserve"><path class="st0" d="M60.03 62.95c0-4.42-3.58-8-8-8H8c-4.42 0-8 3.58-8 8V167c0 4.42 3.58 8 8 8h44.03c4.42 0 8-3.58 8-8V62.95zm0-54.95c0-4.42-3.58-8-8-8H8C3.58 0 0 3.58 0 8v23.93c0 4.42 3.58 8 8 8h44.03c4.42 0 8-3.58 8-8V8zm250 159c0 2.12-.84 4.16-2.34 5.66a8.008 8.008 0 01-5.66 2.34h-39c-2.12 0-4.16-.84-5.66-2.34a8.008 8.008 0 01-2.34-5.66V47.81c0-4.42-3.58-8-8-8h-94c-4.42 0-8 3.58-8 8V62c0 4.42 3.58 8 8 8h54c2.12 0 4.16.84 5.66 2.34s2.34 3.54 2.34 5.66v19.01c0 2.12-.84 4.16-2.34 5.66a8.008 8.008 0 01-5.66 2.34h-54c-4.42 0-8 3.58-8 8v13.97c0 4.42 3.58 8 8 8h54c2.12 0 4.16.84 5.66 2.34s2.34 3.54 2.34 5.66v23.99c0 2.12-.84 4.16-2.34 5.66a8.008 8.008 0 01-5.66 2.34h-114c-4.42 0-8-3.58-8-8V7.98c0-4.42 3.58-8 8-8h249c2.12 0 4.16.84 5.66 2.34s2.34 3.54 2.34 5.66v23.79c0 4.42-3.58 8-8 8h-24c-4.42 0-8 3.58-8 8V167zm56.03-96.62c-1.6-.73-3.47-.4-4.73.82a4.28 4.28 0 00-.97 4.71c9.23 22.21 31.3 75.33 40.08 96.46a4.266 4.266 0 007.8.18c5.3-11.24 14.14-29.98 16.54-35.08.4-.85 1.07-1.55 1.91-1.98 4.69-2.41 21.08-10.81 31.02-15.91a4.263 4.263 0 002.32-3.9 4.277 4.277 0 00-2.5-3.79c-19.66-8.91-70.06-31.79-91.47-41.51z"></path></svg>