<svg>
    <symbol id="menu-icon" viewBox="0 0 24 24" fill="none" xmlns="http://www.w3.org/2000/svg">
        <path d="M2.63989 3.84V6.24H21.3599V3.84H2.63989ZM2.63989 10.8V13.2H21.3599V10.8H2.63989ZM2.63989 17.76V20.16H21.3599V17.76H2.63989Z" fill="currentColor"/>
    </symbol>
    
    <symbol id="logo" viewBox="0 0 64 25" fill="none" xmlns="http://www.w3.org/2000/svg">
        <g clip-path="url(#clip0)">
        <path d="M8.35146 8.75769C8.35146 8.14277 7.8534 7.64472 7.23849 7.64472H1.11297C0.498055 7.64472 0 8.14277 0 8.75769V23.2333C0 23.8482 0.498055 24.3462 1.11297 24.3462H7.23849C7.8534 24.3462 8.35146 23.8482 8.35146 23.2333V8.75769ZM8.35146 1.11297C8.35146 0.498054 7.8534 -3.94049e-07 7.23849 -3.94049e-07H1.11297C0.498055 -3.94049e-07 0 0.498054 0 1.11297V4.44215C0 5.05706 0.498055 5.55512 1.11297 5.55512H7.23849C7.8534 5.55512 8.35146 5.05706 8.35146 4.44215V1.11297ZM43.1318 23.2333C43.1318 23.5282 43.015 23.812 42.8063 24.0207C42.5973 24.2293 42.3141 24.3464 42.0188 24.3462H36.5931C36.2982 24.3462 36.0144 24.2294 35.8057 24.0207C35.5971 23.8117 35.48 23.5285 35.4801 23.2333V6.65139C35.4801 6.03648 34.9821 5.53842 34.3672 5.53842H21.2898C20.6748 5.53842 20.1768 6.03648 20.1768 6.65139V8.62553C20.1768 9.24044 20.6748 9.7385 21.2898 9.7385H28.8023C29.0972 9.7385 29.3811 9.85536 29.5897 10.064C29.7984 10.2727 29.9153 10.5565 29.9153 10.8515V13.4962C29.9153 13.7911 29.7984 14.0749 29.5897 14.2836C29.3808 14.4922 29.0976 14.6092 28.8023 14.6091H21.2898C20.6748 14.6091 20.1768 15.1072 20.1768 15.7221V17.6656C20.1768 18.2805 20.6748 18.7786 21.2898 18.7786H28.8023C29.0972 18.7786 29.3811 18.8955 29.5897 19.1041C29.7984 19.3128 29.9153 19.5966 29.9153 19.8916V23.2291C29.9153 23.524 29.7984 23.8078 29.5897 24.0165C29.3808 24.2251 29.0976 24.3422 28.8023 24.3421H12.9425C12.3275 24.3421 11.8295 23.844 11.8295 23.2291V1.11019C11.8295 0.495272 12.3275 -0.00278282 12.9425 -0.00278282H47.5837C47.8786 -0.00278282 48.1624 0.114079 48.3711 0.322761C48.5798 0.531443 48.6967 0.815251 48.6967 1.11019V4.41989C48.6967 5.0348 48.1986 5.53286 47.5837 5.53286H44.2448C43.6299 5.53286 43.1318 6.03091 43.1318 6.64583V23.2333ZM50.9268 9.79136C50.7042 9.6898 50.444 9.73571 50.2687 9.90544C50.1832 9.98858 50.1246 10.0955 50.1005 10.2123C50.0765 10.3292 50.0881 10.4505 50.1338 10.5607C51.4179 13.6506 54.4883 21.0407 55.7098 23.9804C55.7539 24.0865 55.8278 24.1776 55.9227 24.2425C56.0176 24.3075 56.1293 24.3434 56.2442 24.3461C56.3591 24.3487 56.4724 24.318 56.5701 24.2575C56.6679 24.197 56.746 24.1094 56.7949 24.0054C57.5323 22.4417 58.7621 19.8345 59.096 19.125C59.1516 19.0068 59.2449 18.9094 59.3617 18.8496C60.0142 18.5143 62.2944 17.3457 63.6773 16.6361C63.7767 16.5853 63.8597 16.5073 63.9168 16.4114C63.9739 16.3154 64.0028 16.2052 64 16.0936C63.9974 15.9819 63.9634 15.8732 63.9019 15.78C63.8404 15.6867 63.7538 15.6127 63.6522 15.5663C60.9171 14.3267 53.9054 11.1436 50.9268 9.79136V9.79136Z" fill="currentColor"/>
        </g>
        <defs>
        <clipPath id="clip0">
        <rect width="64" height="24.3462" fill="currentColor"/>
        </clipPath>
        </defs>
    </symbol>

    <symbol id="headerbg" viewBox="0 0 1600 59" fill="none" xmlns="http://www.w3.org/2000/svg">
        <g clip-path="url(#clip0)">
        <path fill-rule="evenodd" clip-rule="evenodd" d="M874.236 39.7C1065.04 58.83 1306.96 53.671 1600 24.226L1600 59H-9.76585e-06L-0.0100098 2.669C257.01 -6.621 605.452 12.754 874.236 39.7Z" fill="currentColor"/>
        </g>
        <defs>
        <clipPath id="clip0">
        <rect width="1600" height="59" fill="white"/>
        </clipPath>
        </defs>
    </symbol>

</svg>
